HIERARCHY
ROOT Hips
{
	OFFSET 0.000000 0.000000 0.000000
	CHANNELS 6 Xposition Yposition Zposition Yrotation Xrotation Zrotation
	JOINT Chest
	{
		OFFSET 0.000000 -0.009282 11.569106
		CHANNELS 6 Xposition Yposition Zposition Yrotation Xrotation Zrotation
		JOINT Chest2
		{
			OFFSET -0.000000 0.016863 9.269641
			CHANNELS 6 Xposition Yposition Zposition Yrotation Xrotation Zrotation
			JOINT Chest3
			{
				OFFSET -0.000000 0.000000 8.374491
				CHANNELS 6 Xposition Yposition Zposition Yrotation Xrotation Zrotation
				JOINT Chest4
				{
					OFFSET -0.000000 0.000000 8.374493
					CHANNELS 6 Xposition Yposition Zposition Yrotation Xrotation Zrotation
					JOINT Neck
					{
						OFFSET -0.000000 0.000001 12.152554
						CHANNELS 6 Xposition Yposition Zposition Yrotation Xrotation Zrotation
						JOINT Head
						{
							OFFSET -0.000000 0.040100 7.802319
							CHANNELS 6 Xposition Yposition Zposition Yrotation Xrotation Zrotation
							End Site
							{
								OFFSET -0.000000 0.020946 14.853096
							}
						}
					}
					JOINT RightCollar
					{
						OFFSET 2.894404 0.000001 6.791374
						CHANNELS 6 Xposition Yposition Zposition Yrotation Xrotation Zrotation
						JOINT RightShoulder
						{
							OFFSET 13.574684 0.000001 0.000000
							CHANNELS 6 Xposition Yposition Zposition Yrotation Xrotation Zrotation
							JOINT RightElbow
							{
								OFFSET 23.923903 0.000002 0.000000
								CHANNELS 6 Xposition Yposition Zposition Yrotation Xrotation Zrotation
								JOINT RightWrist
								{
									OFFSET 19.846718 0.012767 0.000000
									CHANNELS 6 Xposition Yposition Zposition Yrotation Xrotation Zrotation
									End Site
									{
										OFFSET 14.973145 0.000001 0.000000
									}
								}
							}
						}
					}
					JOINT LeftCollar
					{
						OFFSET -2.894404 0.000000 6.791374
						CHANNELS 6 Xposition Yposition Zposition Yrotation Xrotation Zrotation
						JOINT LeftShoulder
						{
							OFFSET -13.574684 -0.000001 0.000000
							CHANNELS 6 Xposition Yposition Zposition Yrotation Xrotation Zrotation
							JOINT LeftElbow
							{
								OFFSET -23.923903 -0.000002 0.000000
								CHANNELS 6 Xposition Yposition Zposition Yrotation Xrotation Zrotation
								JOINT LeftWrist
								{
									OFFSET -19.846718 0.012763 0.000000
									CHANNELS 6 Xposition Yposition Zposition Yrotation Xrotation Zrotation
									End Site
									{
										OFFSET -14.973145 -0.000001 0.000000
									}
								}
							}
						}
					}
				}
			}
		}
	}
	JOINT RightHip
	{
		OFFSET 9.469263 0.004643 0.045487
		CHANNELS 6 Xposition Yposition Zposition Yrotation Xrotation Zrotation
		JOINT RightKnee
		{
			OFFSET 0.000000 0.002666 -40.478676
			CHANNELS 6 Xposition Yposition Zposition Yrotation Xrotation Zrotation
			JOINT RightAnkle
			{
				OFFSET 0.000000 0.049110 -35.224068
				CHANNELS 6 Xposition Yposition Zposition Yrotation Xrotation Zrotation
				JOINT RightToe
				{
					OFFSET -0.000001 12.539530 -6.151390
					CHANNELS 6 Xposition Yposition Zposition Yrotation Xrotation Zrotation
					End Site
					{
						OFFSET -0.000001 5.044996 -1.291870
					}
				}
			}
		}
	}
	JOINT LeftHip
	{
		OFFSET -9.469263 0.004641 0.045487
		CHANNELS 6 Xposition Yposition Zposition Yrotation Xrotation Zrotation
		JOINT LeftKnee
		{
			OFFSET 0.000000 0.002666 -40.478676
			CHANNELS 6 Xposition Yposition Zposition Yrotation Xrotation Zrotation
			JOINT LeftAnkle
			{
				OFFSET 0.000000 0.049110 -35.224068
				CHANNELS 6 Xposition Yposition Zposition Yrotation Xrotation Zrotation
				JOINT LeftToe
				{
					OFFSET -0.000001 12.539530 -6.151390
					CHANNELS 6 Xposition Yposition Zposition Yrotation Xrotation Zrotation
					End Site
					{
						OFFSET -0.000001 5.044996 -1.291870
					}
				}
			}
		}
	}
}
MOTION
Frames: 5
Frame Time: 0.016667
4.849979 5.207325 83.108536 -7.722162 -2.608061 -104.258835 0.000001 -0.009281 11.569113 -0.482932 -8.326199 1.916380 0.000001 0.016863 9.269644 -0.190640 -3.698253 0.812312 0.000001 0.000000 8.374494 -0.190640 -3.698253 0.812312 -0.000000 0.000000 8.374480 -0.138008 -2.773950 0.607868 -0.000000 0.000006 12.152547 8.166292 -24.131355 -9.820279 -0.000002 0.040109 7.802322 12.165756 -8.307574 -15.548410 2.894404 0.000002 6.791374 9.881271 -0.324115 -11.760751 13.574684 0.000002 -0.000001 69.570312 7.472248 17.826252 23.923906 0.000004 -0.000007 59.154424 -57.028688 37.774505 19.846718 0.012776 0.000003 -15.203731 26.711982 46.550502 -2.894405 0.000001 6.791373 -9.108551 1.031107 -4.087033 -13.574685 -0.000003 -0.000007 -52.364038 -12.723189 -26.487757 -23.923908 -0.000000 0.000001 -46.742857 -27.094249 -50.874920 -19.846722 0.012765 -0.000002 12.470870 25.797691 -52.073164 9.469263 0.004644 0.045499 1.013552 -10.868234 -9.399016 0.000153 0.002656 -40.478497 -3.924451 3.623133 -3.563883 0.000015 0.049107 -35.224098 5.590664 -0.488766 -0.404047 0.000000 12.539526 -6.151392 0.017690 0.000214 -0.028327 -9.469262 0.004643 0.045499 0.566332 -11.304257 -21.132810 -0.000878 0.002505 -40.478420 -1.048221 6.237430 19.052598 -0.000954 0.048930 -35.224110 1.450141 -1.372174 20.911285 -0.000003 12.539533 -6.151400 0.030497 -0.048863 0.061492 
4.866483 5.186671 83.107338 -7.787849 -2.608279 -104.218517 0.000001 -0.009281 11.569114 -0.475578 -8.233013 1.901156 0.000001 0.016863 9.269638 -0.185413 -3.658029 0.809275 0.000001 -0.000001 8.374504 -0.185413 -3.658028 0.809274 0.000000 0.000000 8.374496 -0.134163 -2.743773 0.605639 0.000000 0.000004 12.152569 8.100138 -23.982305 -9.835530 0.000001 0.040087 7.802314 12.031766 -8.035792 -15.585643 2.894404 0.000002 6.791381 9.825719 -0.287591 -11.736945 13.574685 0.000003 -0.000001 69.431462 7.427004 17.565980 23.923897 0.000009 -0.000008 61.464749 -55.642659 35.348213 19.846712 0.012757 -0.000004 -15.145543 27.190833 46.269628 -2.894404 0.000000 6.791387 -9.080584 1.052762 -4.053780 -13.574690 -0.000000 0.000004 -52.466276 -12.905662 -26.384911 -23.923901 -0.000002 0.000000 -47.667774 -26.360915 -49.750651 -19.846718 0.012761 0.000006 12.397424 26.980567 -51.441638 9.469264 0.004645 0.045498 1.010936 -10.941779 -9.445260 0.000154 0.002656 -40.478489 -3.910840 3.597774 -3.553108 0.000016 0.049107 -35.224091 5.567252 -0.445787 -0.404173 0.000001 12.539526 -6.151391 0.018301 -0.003973 -0.027067 -9.469264 0.004642 0.045491 0.565839 -11.369049 -21.170088 -0.000876 0.002504 -40.478424 -1.045629 6.207801 19.069705 -0.000951 0.048932 -35.224110 1.440461 -1.339804 20.863279 -0.000003 12.539536 -6.151399 0.022821 -0.048450 0.051574 
4.885788 5.156044 83.106026 -7.857970 -2.622032 -104.192917 0.000001 -0.009280 11.569110 -0.454518 -8.136107 1.888792 0.000001 0.016863 9.269644 -0.180118 -3.613777 0.802991 0.000001 0.000001 8.374492 -0.180118 -3.613778 0.802990 -0.000000 -0.000000 8.374493 -0.130290 -2.710575 0.600977 0.000001 0.000002 12.152551 8.020974 -23.829145 -9.843670 -0.000000 0.040101 7.802298 11.875874 -7.757339 -15.613693 2.894406 0.000001 6.791375 9.764660 -0.272683 -11.709107 13.574683 0.000007 -0.000005 69.255673 7.385261 17.384894 23.923908 0.000014 -0.000000 63.814314 -54.091844 32.988683 19.846724 0.012771 0.000004 -15.096055 27.664802 45.931403 -2.894403 0.000001 6.791370 -9.043278 1.032990 -4.019861 -13.574682 0.000000 0.000007 -52.547767 -13.039610 -26.320032 -23.923906 -0.000000 -0.000008 -48.681203 -25.574631 -48.648565 -19.846722 0.012748 0.000000 12.356073 28.205111 -50.728495 9.469263 0.004645 0.045490 1.023416 -11.028473 -9.482636 0.000153 0.002656 -40.478497 -3.898536 3.582211 -3.522891 0.000016 0.049108 -35.224091 5.543233 -0.407486 -0.416880 0.000001 12.539528 -6.151393 0.016421 -0.004357 -0.029563 -9.469262 0.004643 0.045484 0.578754 -11.441449 -21.187165 -0.000876 0.002504 -40.478436 -1.047221 6.179830 19.079546 -0.000955 0.048935 -35.224106 1.421340 -1.297804 20.900104 -0.000004 12.539536 -6.151400 0.028035 -0.051667 0.065617 
4.904782 5.131460 83.104439 -7.929793 -2.620983 -104.156239 -0.000000 -0.009282 11.569094 -0.446531 -8.034092 1.859964 0.000000 0.016864 9.269636 -0.175616 -3.569599 0.794421 0.000000 0.000000 8.374496 -0.175615 -3.569598 0.794418 0.000000 -0.000001 8.374496 -0.127023 -2.677432 0.594593 0.000000 0.000003 12.152552 7.934311 -23.663824 -9.848428 -0.000001 0.040106 7.802298 11.706365 -7.457000 -15.637566 2.894404 0.000000 6.791374 9.695900 -0.239043 -11.693759 13.574685 0.000001 -0.000009 69.056744 7.304918 17.273629 23.923901 0.000003 -0.000009 66.036482 -52.396277 30.834787 19.846716 0.012764 0.000005 -15.083889 28.211038 45.476161 -2.894404 -0.000000 6.791379 -9.010232 1.022495 -3.999695 -13.574682 0.000000 0.000008 -52.592829 -13.141219 -26.286902 -23.923904 -0.000002 0.000001 -49.751624 -24.713895 -47.598567 -19.846716 0.012764 -0.000002 12.342303 29.495643 -49.881486 9.469262 0.004643 0.045477 1.025407 -11.114367 -9.530241 0.000151 0.002656 -40.478497 -3.893889 3.569158 -3.495202 0.000019 0.049106 -35.224094 5.521331 -0.365307 -0.435810 0.000001 12.539528 -6.151390 0.018070 -0.009452 -0.026332 -9.469263 0.004641 0.045476 0.577216 -11.512249 -21.223257 -0.000879 0.002505 -40.478420 -1.047517 6.146454 19.089259 -0.000956 0.048934 -35.224102 1.410950 -1.259532 20.896556 -0.000004 12.539534 -6.151397 0.021462 -0.050684 0.054111 
4.925620 5.103758 83.102440 -8.004529 -2.627060 -104.127060 -0.000000 -0.009282 11.569099 -0.440237 -7.936831 1.844281 0.000000 0.016863 9.269646 -0.172572 -3.525290 0.789125 -0.000000 -0.000000 8.374494 -0.172573 -3.525289 0.789125 -0.000000 0.000000 8.374497 -0.124832 -2.644195 0.590660 0.000000 -0.000001 12.152533 7.853272 -23.486517 -9.857797 -0.000004 0.040103 7.802319 11.544720 -7.134166 -15.668242 2.894404 0.000001 6.791358 9.637103 -0.202765 -11.682120 13.574683 0.000000 -0.000010 68.856237 7.206960 17.221057 23.923906 0.000007 -0.000008 67.914278 -50.628576 29.051352 19.846714 0.012764 0.000000 -15.042723 28.800947 44.948990 -2.894403 0.000000 6.791356 -8.968767 1.032679 -4.002878 -13.574686 0.000000 -0.000001 -52.630866 -13.246442 -26.287633 -23.923889 0.000003 -0.000002 -50.738904 -23.778740 -46.630309 -19.846708 0.012772 -0.000006 12.420686 30.725756 -48.908550 9.469263 0.004643 0.045477 1.039243 -11.204167 -9.561616 0.000151 0.002656 -40.478504 -3.896959 3.550605 -3.494537 0.000018 0.049107 -35.224091 5.498670 -0.318488 -0.438613 -0.000000 12.539528 -6.151392 0.020776 -0.015171 -0.021298 -9.469262 0.004642 0.045478 0.575087 -11.585912 -21.252728 -0.000878 0.002504 -40.478420 -1.044853 6.103535 19.092662 -0.000952 0.048936 -35.224106 1.399548 -1.212544 20.835728 -0.000003 12.539535 -6.151388 0.016139 -0.053082 0.045494 
